<?xml version="1.0" encoding="UTF-8" standalone="no"?>
<!-- Created with Inkscape (http://www.inkscape.org/) -->

<svg
   version="1.1"
   id="svg1"
   width="470.39999"
   height="470.39999"
   viewBox="0 0 470.39999 470.39999"
   xmlns="http://www.w3.org/2000/svg"
   xmlns:svg="http://www.w3.org/2000/svg">
  <defs
     id="defs1" />
  <g
     id="g2">
    <path
       style="fill:#f39c12;fill-opacity:1"
       d="m 192.73514,413.83874 c -2.69166,-2.405 -3.13514,-3.43461 -3.13514,-7.27875 0,-3.84413 0.44348,-4.87374 3.13514,-7.27874 l 3.13515,-2.80126 52.06485,-0.0853 c 62.52559,-0.10245 61.10385,-0.13957 63.90504,1.6686 5.41876,3.49782 5.67802,12.52214 0.47728,16.61304 -2.45121,1.92812 -3.5277,1.96366 -59.47178,1.96366 H 195.87029 Z M 273.98394,380.64 c 0.001,-7.92 0.15004,-11.03226 0.33042,-6.91613 0.18039,4.11614 0.17929,10.59614 -0.002,14.4 -0.18174,3.80387 -0.32932,0.43612 -0.32798,-7.48387 z M 130.63579,250.96 c 0.0461,-1.11835 0.27354,-1.34583 0.58,-0.58 0.27731,0.693 0.24321,1.521 -0.0758,1.84 -0.319,0.319 -0.5459,-0.248 -0.50421,-1.26 z M 130.56,195.84 v -50.88 h -12.78899 c -14.93092,0 -19.798323,-1.2502 -25.166947,-6.46414 -9.602561,-9.32588 -9.602561,-23.82584 0,-33.15173 5.392375,-5.237 10.217477,-6.464362 25.406947,-6.462738 l 13.02899,0.0014 0.38032,73.918605 c 0.20918,40.65523 0.10118,73.91861 -0.24,73.91861 -0.34118,0 -0.62032,-22.896 -0.62032,-50.88 z m 110.22,14.70421 c 0.693,-0.27732 1.521,-0.24321 1.84,0.0758 0.319,0.319 -0.248,0.54589 -1.26,0.50421 -1.11835,-0.0461 -1.34583,-0.27354 -0.58,-0.58 z M 161.54147,103.68 c 0,-2.376 0.18721,-3.348 0.41603,-2.16 0.22882,1.188 0.22882,3.132 0,4.32 -0.22882,1.188 -0.41603,0.216 -0.41603,-2.16 z"
       id="path3" />
    <path
       style="fill:#f2b400;fill-opacity:1"
       d="m 221.76,379.32034 v -17.15966 l -8.82651,-3.08219 c -26.10976,-9.11748 -48.26151,-26.14101 -62.9441,-48.37229 -7.509,-11.36957 -11.43243,-19.97706 -15.24432,-33.44404 l -2.53112,-8.94216 -0.77727,-82.97536 c -0.85882,-91.681962 -0.85771,-91.705015 4.98967,-103.611453 6.09459,-12.409792 20.76041,-23.535486 34.34468,-26.054349 7.4941,-1.389594 19.80991,-1.151811 26.89962,0.519353 17.29942,4.077762 31.51739,18.083721 36.0594,35.521699 1.23994,4.760456 1.46995,14.54955 1.46995,62.5618 0,54.34096 0.0789,56.91831 1.74211,56.91831 5.10039,0 44.07967,-4.06619 54.94855,-5.73205 36.31367,-5.56576 65.99594,-16.00534 85.62934,-30.11677 l 7.44,-5.34748 v 43.56868 c 0,25.76571 -0.42069,46.59327 -1.02952,50.97066 -5.63653,40.52508 -35.38299,77.14844 -75.14905,92.52228 l -8.26002,3.19338 -0.26071,17.87065 -0.2607,17.87064 -12.72,0.26787 -12.72,0.26786 v -14.8512 c 0,-8.16817 -0.324,-14.99614 -0.72,-15.17327 -0.396,-0.17714 -6.444,-0.1683 -13.44,0.0196 l -12.72,0.3417 v 14.80371 14.8037 h -12.96 -12.96 z m -26.63313,-253.0448 c 4.82988,-2.01806 9.0022,-5.8169 12.01196,-10.93672 2.18986,-3.72514 2.61759,-5.56457 2.59942,-11.17882 -0.0257,-7.951021 -1.84705,-12.310463 -7.42923,-17.782365 -9.03288,-8.854447 -24.45115,-8.727812 -33.45373,0.274765 -11.86465,11.864653 -8.63514,31.79842 6.27668,38.74206 5.73179,2.66899 14.76333,3.06697 19.9949,0.88108 z"
       id="path2" />
    <path
       id="path4"
       style="fill:#ffffff;stroke-width:0.891883;fill-opacity:1"
       d="m 209.52571,103.87755 a 23.756084,23.608532 0 0 1 -23.75609,23.60853 23.756084,23.608532 0 0 1 -23.75608,-23.60853 23.756084,23.608532 0 0 1 23.75608,-23.608534 23.756084,23.608532 0 0 1 23.75609,23.608534 z" />
  </g>
</svg>
